<svg width="15" height="22" viewBox="0 0 15 22" fill="none" xmlns="http://www.w3.org/2000/svg">
<path d="M13.7068 11.7558C12.1649 6.6851 7.62706 1.27338 7.39636 0.999956C7.36033 0.960509 7.31648 0.929002 7.2676 0.907445C7.21871 0.885889 7.16588 0.874756 7.11245 0.874756C7.05903 0.874756 7.00619 0.885889 6.95731 0.907445C6.90843 0.929002 6.86457 0.960509 6.82854 0.999956C6.59785 1.27338 2.0592 6.68432 0.516549 11.7558C0.200405 12.7959 0 13.8236 0 14.7875C0 18.7087 3.19095 21.8988 7.11206 21.8988C11.0332 21.8988 14.2226 18.7087 14.2226 14.7875C14.2234 13.8236 14.0229 12.7967 13.7068 11.7558ZM7.11284 21.1562C3.60108 21.1562 0.744141 18.2993 0.744141 14.7883C0.744141 13.8352 0.956199 12.8052 1.29487 11.7566C2.64411 7.58149 6.09761 3.09101 7.11284 1.82876C8.12807 3.09101 11.5816 7.58149 12.9293 11.7566C13.2679 12.806 13.48 13.8352 13.48 14.7883C13.48 18.2993 10.6238 21.1562 7.11284 21.1562Z" fill="white"/>
<path d="M3.12649 11.7559C2.73811 12.7424 2.47867 13.7304 2.47867 14.6299C2.47867 15.8589 2.96687 17.0375 3.83588 17.9065C4.70488 18.7755 5.8835 19.2637 7.11246 19.2637C8.34142 19.2637 9.52005 18.7755 10.3891 17.9065C11.2581 17.0375 11.7463 15.8589 11.7463 14.6299C11.7463 13.7304 11.4868 12.7424 11.0984 11.7559H3.12649Z" fill="white"/>
</svg>
