<svg width="12" height="21" viewBox="0 0 12 21" fill="none" xmlns="http://www.w3.org/2000/svg">
<path d="M6.89453 13.1158V6.89178C6.89453 6.64831 6.79782 6.41482 6.62566 6.24266C6.4535 6.07051 6.22001 5.97379 5.97654 5.97379C5.73307 5.97379 5.49958 6.07051 5.32742 6.24266C5.15526 6.41482 5.05855 6.64831 5.05855 6.89178V13.1158C4.78106 13.276 4.55033 13.506 4.38928 13.783C4.22824 14.06 4.14249 14.3743 4.14055 14.6947C4.14055 15.1817 4.33399 15.6486 4.6783 15.993C5.02262 16.3373 5.48961 16.5307 5.97654 16.5307C6.46347 16.5307 6.93046 16.3373 7.27478 15.993C7.61909 15.6486 7.81253 15.1817 7.81253 14.6947C7.81059 14.3743 7.72484 14.06 7.5638 13.783C7.40275 13.506 7.17202 13.276 6.89453 13.1158ZM10.1075 11.0227V4.1378C10.1075 3.0422 9.67228 1.99147 8.89757 1.21677C8.12287 0.442062 7.07214 0.00683594 5.97654 0.00683594C4.88094 0.00683594 3.83021 0.442062 3.05551 1.21677C2.2808 1.99147 1.84557 3.0422 1.84557 4.1378V11.0227C1.2111 11.7417 0.77531 12.6139 0.581324 13.553C0.387338 14.492 0.441873 15.4655 0.739533 16.377C1.03719 17.2885 1.56767 18.1066 2.27848 18.7502C2.98929 19.3938 3.85581 19.8407 4.79233 20.0466C5.18137 20.1353 5.57781 20.1875 5.97654 20.2027C7.04199 20.2076 8.086 19.9035 8.98206 19.327C9.87813 18.7506 10.5878 17.9267 11.025 16.9551C11.4622 15.9834 11.6083 14.9059 11.4454 13.8529C11.2826 12.8 10.8178 11.8169 10.1075 11.0227ZM8.27152 17.513C7.54112 18.1606 6.58337 18.4915 5.60896 18.433C4.63455 18.3745 3.7233 17.9312 3.07568 17.2008C2.42806 16.4704 2.09711 15.5127 2.15565 14.5383C2.21418 13.5639 2.6574 12.6526 3.3878 12.005C3.47454 11.92 3.54355 11.8186 3.59082 11.7067C3.63809 11.5948 3.66269 11.4747 3.6632 11.3532V4.1378C3.6632 3.52914 3.90499 2.9454 4.33538 2.51501C4.76578 2.08461 5.34951 1.84282 5.95818 1.84282C6.56685 1.84282 7.15058 2.08461 7.58098 2.51501C8.01137 2.9454 8.25316 3.52914 8.25316 4.1378V11.4267C8.25367 11.5481 8.27827 11.6683 8.32554 11.7802C8.37282 11.892 8.44182 11.9934 8.52856 12.0784C8.90379 12.4409 9.19747 12.8792 9.39003 13.3641C9.58258 13.849 9.6696 14.3694 9.64528 14.8905C9.62096 15.4117 9.48586 15.9217 9.24898 16.3865C9.0121 16.8514 8.67888 17.2604 8.27152 17.5864V17.513Z" fill="white"/>
</svg>
