<svg width="27" height="22" viewBox="0 0 27 22" fill="none" xmlns="http://www.w3.org/2000/svg">
<path d="M0.953303 8.50094C0.700471 8.50094 0.457995 8.4005 0.279216 8.22172C0.100437 8.04294 0 7.80046 0 7.54763C0 7.2948 0.100437 7.05232 0.279216 6.87355C0.457995 6.69477 0.700471 6.59433 0.953303 6.59433H12.3929C12.741 6.59407 13.0823 6.49854 13.3799 6.31811C13.6776 6.13767 13.9201 5.87921 14.0813 5.57074C14.2425 5.26227 14.3162 4.91556 14.2944 4.5682C14.2725 4.22084 14.1561 3.88608 13.9575 3.6002C13.759 3.31433 13.486 3.08825 13.1682 2.94647C12.8503 2.8047 12.4997 2.75263 12.1544 2.79593C11.809 2.83922 11.4821 2.97621 11.2091 3.19206C10.936 3.40791 10.7273 3.69438 10.6055 4.02041C10.5675 4.14426 10.5048 4.25908 10.421 4.35786C10.3372 4.45664 10.2341 4.53731 10.1181 4.59493C10.0021 4.65256 9.87556 4.68594 9.74622 4.69303C9.61688 4.70013 9.48745 4.68079 9.36583 4.63619C9.24421 4.5916 9.13296 4.52269 9.03886 4.43367C8.94476 4.34465 8.8698 4.23738 8.81853 4.11842C8.76727 3.99946 8.74079 3.8713 8.74071 3.74177C8.74062 3.61223 8.76694 3.48404 8.81805 3.36502C9.05976 2.71146 9.47593 2.13663 10.0214 1.70297C10.5668 1.2693 11.2206 0.993386 11.9118 0.905184C12.6031 0.816983 13.3052 0.919869 13.9421 1.20267C14.5789 1.48547 15.1261 1.93737 15.5242 2.50928C15.9223 3.0812 16.156 3.75126 16.2001 4.44669C16.2441 5.14211 16.0968 5.83631 15.774 6.45388C15.4513 7.07145 14.9655 7.58878 14.3694 7.94967C13.7733 8.31056 13.0898 8.50122 12.3929 8.50094H0.953303ZM16.2061 14.2208H2.85991C2.60708 14.2208 2.3646 14.3212 2.18582 14.5C2.00704 14.6787 1.90661 14.9212 1.90661 15.1741C1.90661 15.4269 2.00704 15.6694 2.18582 15.8481C2.3646 16.0269 2.60708 16.1274 2.85991 16.1274H16.2061C16.5542 16.1276 16.8955 16.2231 17.1932 16.4036C17.4908 16.584 17.7333 16.8425 17.8945 17.1509C18.0557 17.4594 18.1294 17.8061 18.1076 18.1535C18.0858 18.5008 17.9693 18.8356 17.7707 19.1215C17.5722 19.4074 17.2992 19.6334 16.9814 19.7752C16.6635 19.917 16.3129 19.9691 15.9676 19.9258C15.6222 19.8825 15.2953 19.7455 15.0223 19.5296C14.7493 19.3138 14.5405 19.0273 14.4187 18.7013C14.3808 18.5774 14.318 18.4626 14.2342 18.3638C14.1504 18.265 14.0473 18.1844 13.9313 18.1268C13.8153 18.0691 13.6888 18.0357 13.5594 18.0287C13.4301 18.0216 13.3007 18.0409 13.179 18.0855C13.0574 18.1301 12.9462 18.199 12.8521 18.288C12.758 18.377 12.683 18.4843 12.6317 18.6033C12.5805 18.7222 12.554 18.8504 12.5539 18.9799C12.5538 19.1095 12.5802 19.2376 12.6313 19.3567C12.873 20.0102 13.2891 20.5851 13.8346 21.0187C14.38 21.4524 15.0338 21.7283 15.725 21.8165C16.4163 21.9047 17.1184 21.8018 17.7553 21.519C18.3921 21.2362 18.9393 20.7843 19.3374 20.2124C19.7355 19.6405 19.9693 18.9704 20.0133 18.275C20.0574 17.5796 19.91 16.8854 19.5873 16.2678C19.2645 15.6502 18.7787 15.1329 18.1826 14.772C17.5865 14.4111 16.903 14.2205 16.2061 14.2208ZM22.8793 4.68772C22.1007 4.68973 21.3414 4.92924 20.7026 5.37427C20.0638 5.81929 19.576 6.44863 19.3044 7.17823C19.2533 7.29725 19.227 7.42545 19.227 7.55498C19.2271 7.68451 19.2536 7.81267 19.3049 7.93163C19.3561 8.05059 19.4311 8.15786 19.5252 8.24688C19.6193 8.3359 19.7305 8.40481 19.8522 8.4494C19.9738 8.494 20.1032 8.51334 20.2325 8.50624C20.3619 8.49915 20.4884 8.46577 20.6044 8.40814C20.7204 8.35052 20.8235 8.26985 20.9073 8.17107C20.9911 8.0723 21.0539 7.95748 21.0918 7.83362C21.2136 7.50759 21.4224 7.22112 21.6954 7.00527C21.9684 6.78942 22.2953 6.65243 22.6407 6.60914C22.986 6.56585 23.3366 6.61791 23.6545 6.75969C23.9724 6.90146 24.2453 7.12754 24.4439 7.41342C24.6424 7.69929 24.7589 8.03405 24.7807 8.38141C24.8025 8.72878 24.7288 9.07548 24.5676 9.38395C24.4064 9.69242 24.1639 9.95088 23.8663 10.1313C23.5686 10.3118 23.2273 10.4073 22.8793 10.4075H1.90661C1.65377 10.4075 1.4113 10.508 1.23252 10.6868C1.05374 10.8655 0.953303 11.108 0.953303 11.3608C0.953303 11.6137 1.05374 11.8562 1.23252 12.0349C1.4113 12.2137 1.65377 12.3141 1.90661 12.3141H22.8793C23.8906 12.3141 24.8605 11.9124 25.5756 11.1973C26.2907 10.4822 26.6925 9.51226 26.6925 8.50094C26.6925 7.48961 26.2907 6.5197 25.5756 5.80459C24.8605 5.08947 23.8906 4.68772 22.8793 4.68772Z" fill="white"/>
</svg>
